<mxfile host="app.diagrams.net" modified="2024-05-23T15:24:32.995Z" agent="Mozilla/5.0 (Windows NT 10.0; Win64; x64) AppleWebKit/537.36 (KHTML, like Gecko) Chrome/124.0.0.0 Safari/537.36" version="24.4.6" etag="gf-b4An-6q0GkrgjCsAX" type="github">
  <diagram name="Page-1" id="7M-i5MnYyh6JKaDzocyO">
    <mxGraphModel>
      <root>
        <mxCell id="0" />
        <mxCell id="1" parent="0" />
      </root>
    </mxGraphModel>
  </diagram>
</mxfile>
